<svg class="main-svg" xmlns="http://www.w3.org/2000/svg" xmlns:xlink="http://www.w3.org/1999/xlink" width="1366" height="768" style="" viewBox="0 0 1366 768"><rect x="0" y="0" width="1366" height="768" style="fill: rgb(0, 0, 0); fill-opacity: 0;"/><defs id="defs-7892c2"><g class="clips"/><g class="gradients"/><g class="patterns"/></defs><g class="bglayer"/><g class="layer-below"><g class="imagelayer"/><g class="shapelayer"/></g><g class="cartesianlayer"/><g class="polarlayer"/><g class="ternarylayer"/><g class="geolayer"/><g class="funnelarealayer"/><g class="pielayer"><g class="trace" stroke-linejoin="round" style="opacity: 1;"><g class="slice"><path class="surface" d="M741.5532190756581,426.18990458770554a66.81818181818181,66.81818181818181 0 0 0 -58.55321907565815,-99.00808640588734l0,-200.45454545454544a267.27272727272725,267.27272727272725 0 0 1 234.2128763026326,396.03234562354936Z" style="pointer-events: all; stroke-width: 0; fill: rgb(0, 0, 0); fill-opacity: 0; stroke: rgb(68, 68, 68); stroke-opacity: 1;"/></g><g class="slice"><path class="surface" d="M659.99471309644,340.78710693005536a66.81818181818181,66.81818181818181 0 1 0 58.55321907565816,99.00808640588734l175.65965722697445,96.56971376311658a267.27272727272725,267.27272727272725 0 1 1 -234.21287630263265,-396.03234562354936Z" style="pointer-events: all; stroke-width: 0; fill: rgb(162, 169, 177); fill-opacity: 1; stroke: rgb(68, 68, 68); stroke-opacity: 1;"/></g></g><g class="trace" stroke-linejoin="round" style="opacity: 1;"><g class="slice"><path class="surface" d="M747.4085409832239,429.40889504647606a73.5,73.5 0 0 0 9.091459016776014,-35.40889504647606l220.5,-1.3501730960599569e-14a294,294 0 0 1 -36.365836067104055,141.63558018590425Z" style="pointer-events: all; stroke-width: 0; fill: rgb(42, 75, 141); fill-opacity: 0.925; stroke: rgb(68, 68, 68); stroke-opacity: 1;"/></g><g class="slice"><path class="surface" d="M756.5,394a73.5,73.5 0 0 0 -73.5,-73.5l0,-220.5a294,294 0 0 1 294,294Z" style="pointer-events: all; stroke-width: 0; fill: rgb(42, 75, 141); fill-opacity: 1; stroke: rgb(68, 68, 68); stroke-opacity: 1;"/></g><g class="slice"><path class="surface" d="M683,320.5a73.5,73.5 0 1 0 64.40854098322397,108.90889504647608l193.2256229496719,106.22668513942823a294,294 0 1 1 -257.6341639328959,-435.6355801859043Z" style="pointer-events: all; stroke-width: 0; fill: rgb(0, 0, 0); fill-opacity: 0; stroke: rgb(68, 68, 68); stroke-opacity: 1;"/></g></g></g><g class="iciclelayer"/><g class="treemaplayer"/><g class="sunburstlayer"/><g class="glimages"/><defs id="topdefs-7892c2"><g class="clips"/></defs><g class="layer-above"><g class="imagelayer"/><g class="shapelayer"/></g><g class="infolayer"><g class="g-gtitle"/><g class="annotation" data-index="0" style="opacity: 1;"><g class="annotation-text-g" transform="rotate(0,227.5,175.20000000000002)"><g class="cursor-pointer" transform="translate(80,162)"><rect class="bg" x="0.5" y="0.5" width="294" height="25" style="stroke-width: 1px; stroke: rgb(0, 0, 0); stroke-opacity: 0; fill: rgb(0, 0, 0); fill-opacity: 0;"/><text class="annotation-text" text-anchor="start" x="2" y="20" style="font-family: Lato; font-size: 18px; fill: rgb(0, 0, 0); fill-opacity: 1; white-space: pre;">Durchschnittliche Aufrufe pro Monat</text></g></g></g><g class="annotation" data-index="1" style="opacity: 1;"><g class="annotation-text-g" transform="rotate(0,246.5,231.40000000000003)"><g class="cursor-pointer" transform="translate(80,186)"><rect class="bg" x="0.5" y="0.5" width="332" height="89" style="stroke-width: 1px; stroke: rgb(0, 0, 0); stroke-opacity: 0; fill: rgb(0, 0, 0); fill-opacity: 0;"/><text class="annotation-text" text-anchor="start" x="2" y="73" style="font-family: Lato; font-size: 18px; fill: rgb(51, 102, 204); fill-opacity: 1; white-space: pre;"><tspan style="font-size:4em">1 500 000</tspan></text></g></g></g><g class="annotation" data-index="2" style="opacity: 1;"><g class="annotation-text-g" transform="rotate(0,1105,172.59999999999997)"><g class="cursor-pointer" transform="translate(985,128)"><rect class="bg" x="0.5" y="0.5" width="240" height="89" style="stroke-width: 1px; stroke: rgb(0, 0, 0); stroke-opacity: 0; fill: rgb(0, 0, 0); fill-opacity: 0;"/><text class="annotation-text" text-anchor="start" x="2" y="73" style="font-family: Lato; font-size: 18px; fill: rgb(0, 0, 0); fill-opacity: 1; white-space: pre;"><tspan class="line" dy="0em" x="2" y="73"><tspan style="font-size:2em">25</tspan> <tspan style="font-size:2em">bis</tspan> <tspan style=" fill:#2A4B8D;font-size:4em">33%</tspan></tspan><tspan class="line" dy="1.3em" x="2" y="73"></tspan></text></g></g></g><g class="annotation" data-index="3" style="opacity: 1;"><g class="annotation-text-g" transform="rotate(0,1096.5,234)"><g class="cursor-pointer" transform="translate(985,221)"><rect class="bg" x="0.5" y="0.5" width="223" height="25" style="stroke-width: 1px; stroke: rgb(0, 0, 0); stroke-opacity: 0; fill: rgb(0, 0, 0); fill-opacity: 0;"/><text class="annotation-text" text-anchor="start" x="2" y="20" style="font-family: Lato; font-size: 18px; fill: rgb(0, 0, 0); fill-opacity: 1; white-space: pre;"><tspan class="line" dy="0em" x="2" y="20">der Artikelaufrufe führen zu</tspan><tspan class="line" dy="1.3em" x="2" y="20"></tspan></text></g></g></g><g class="annotation" data-index="4" style="opacity: 1;"><g class="annotation-text-g" transform="rotate(0,1056,263.40000000000003)"><g class="cursor-pointer" transform="translate(985,250)"><rect class="bg" x="0.5" y="0.5" width="142" height="25" style="stroke-width: 1px; stroke: rgb(0, 0, 0); stroke-opacity: 0; fill: rgb(0, 0, 0); fill-opacity: 0;"/><text class="annotation-text" text-anchor="start" x="2" y="20" style="font-family: Lato; font-size: 18px; fill: rgb(0, 0, 0); fill-opacity: 1; white-space: pre;">einem Videoklick.</text></g></g></g></g></svg>