<svg class="main-svg" xmlns="http://www.w3.org/2000/svg" xmlns:xlink="http://www.w3.org/1999/xlink" width="768" height="768" style="" viewBox="0 0 768 768"><rect x="0" y="0" width="768" height="768" style="fill: rgb(0, 0, 0); fill-opacity: 0;"/><defs id="defs-5df624"><g class="clips"/><g class="gradients"/><g class="patterns"/></defs><g class="bglayer"/><g class="layer-below"><g class="imagelayer"/><g class="shapelayer"/></g><g class="cartesianlayer"/><g class="polarlayer"/><g class="ternarylayer"/><g class="geolayer"/><g class="funnelarealayer"/><g class="pielayer"/><g class="iciclelayer"/><g class="treemaplayer"/><g class="sunburstlayer"><g class="trace sunburst" stroke-linejoin="round" style="opacity: 1;"><g class="slice"><path class="surface" d="M384,394A0,0 0,1,0 384,394A0,0 0,1,0 384,394ZM482,394A98,98 0,1,1 286,394A98,98 0,1,1 482,394Z" style="pointer-events: all; stroke-width: 1; fill: rgb(0, 0, 0); fill-opacity: 0; stroke: rgb(0, 0, 0); stroke-opacity: 0;"/><g class="slicetext"><text data-notex="1" class="slicetext" text-anchor="middle" x="0" y="0" style="font-family: Lato; font-size: 24px; fill: rgb(255, 0, 0); fill-opacity: 1; white-space: pre;" transform="translate(384,387.8984375)"><tspan class="line" dy="0em" x="0" y="0">   </tspan><tspan class="line" dy="1.3em" x="0" y="0"> </tspan></text></g></g><g class="slice"><path class="surface" d="M350.48202595408446,486.089876837019L316.9640519081689,578.179753674038A196,196 0,0,0 473.0217200200532,219.38289498256117L428.5108600100266,306.6914474912806A98,98 0,0,1 350.48202595408446,486.089876837019Z" style="pointer-events: all; stroke-width: 1; fill: rgb(84, 89, 93); fill-opacity: 1; stroke: rgb(0, 0, 0); stroke-opacity: 0; opacity: 0.7;"/><g class="slicetext"><text data-notex="1" class="slicetext" text-anchor="middle" x="0" y="0" style="font-family: Lato; font-size: 14px; fill: rgb(0, 0, 0); fill-opacity: 1; white-space: pre;" transform="translate(518.8011869249119,449.0298284406468)"><tspan class="line" dy="0em" x="0" y="0">  </tspan><tspan class="line" dy="1.3em" x="0" y="0"> </tspan></text></g></g><g class="slice cursor-pointer"><path class="surface" d="M428.5108600100266,306.6914474912806L473.0217200200532,219.38289498256117A196,196 0,1,0 316.964051908169,578.179753674038L350.48202595408446,486.089876837019A98,98 0,1,1 428.5108600100266,306.6914474912806Z" style="pointer-events: all; stroke-width: 1; fill: rgb(42, 75, 141); fill-opacity: 1; stroke: rgb(0, 0, 0); stroke-opacity: 0;"/><g class="slicetext"><text data-notex="1" class="slicetext" text-anchor="middle" x="0" y="0" style="font-family: Lato; font-size: 14px; fill: rgb(0, 0, 0); fill-opacity: 1; white-space: pre;" transform="translate(277.33357779575465,343.67825919978173)rotate(23.506493506493484)"><tspan class="line" dy="0em" x="0" y="0"> </tspan><tspan class="line" dy="1.3em" x="0" y="0"> </tspan></text></g></g><g class="slice"><path class="surface" d="M473.0217200200532,219.38289498256117L517.5325800300798,132.07434247384174A294,294 0,0,0 220.5930967925827,149.59422268661126L275.0620645283885,231.0628151244075A196,196 0,0,1 473.0217200200532,219.38289498256117Z" style="pointer-events: all; stroke-width: 1; fill: rgb(51, 102, 204); fill-opacity: 1; stroke: rgb(0, 0, 0); stroke-opacity: 0; opacity: 0.7;"/><g class="slicetext"><text data-notex="1" class="slicetext" text-anchor="middle" x="0" y="0" style="font-family: Lato; font-size: 14px; fill: rgb(0, 0, 0); fill-opacity: 1; white-space: pre;" transform="translate(369.47597350034266,145.82377176345355)"><tspan class="line" dy="0em" x="0" y="0">Englisch</tspan><tspan class="line" dy="1.3em" x="0" y="0">39</tspan></text></g></g><g class="slice"><path class="surface" d="M275.0620645283885,231.0628151244075L220.5930967925827,149.59422268661126A294,294 0,0,0 90.47190482777972,377.34895364945487L188.31460321851984,382.89930243296993A196,196 0,0,1 275.0620645283885,231.0628151244075Z" style="pointer-events: all; stroke-width: 1; fill: rgb(51, 102, 204); fill-opacity: 1; stroke: rgb(0, 0, 0); stroke-opacity: 0; opacity: 0.7;"/><g class="slicetext"><text data-notex="1" class="slicetext" text-anchor="middle" x="0" y="0" style="font-family: Lato; font-size: 14px; fill: rgb(0, 0, 0); fill-opacity: 1; white-space: pre;" transform="translate(173.4290053583369,273.8042190515331)rotate(-60.25974025974028)"><tspan class="line" dy="0em" x="0" y="0">Niederländisch</tspan><tspan class="line" dy="1.3em" x="0" y="0">34</tspan></text></g></g><g class="slice"><path class="surface" d="M188.31460321851984,382.89930243296993L90.47190482777972,377.34895364945487A294,294 0,0,0 136.31181481417497,552.3873824499681L218.87454320944997,499.5915882999787A196,196 0,0,1 188.31460321851984,382.89930243296993Z" style="pointer-events: all; stroke-width: 1; fill: rgb(51, 102, 204); fill-opacity: 1; stroke: rgb(0, 0, 0); stroke-opacity: 0; opacity: 0.7;"/><g class="slicetext"><text data-notex="1" class="slicetext" text-anchor="middle" x="0" y="0" style="font-family: Lato; font-size: 14px; fill: rgb(0, 0, 0); fill-opacity: 1; white-space: pre;" transform="translate(146.96139776349642,452.4670687547805)"><tspan class="line" dy="0em" x="0" y="0">Esperanto</tspan><tspan class="line" dy="1.3em" x="0" y="0">23</tspan></text></g></g><g class="slice"><path class="surface" d="M218.87454320944997,499.5915882999787L136.31181481417497,552.3873824499681A294,294 0,0,0 283.44607786225345,670.2696305110571L316.964051908169,578.179753674038A196,196 0,0,1 218.87454320944997,499.5915882999787Z" style="pointer-events: all; stroke-width: 1; fill: rgb(51, 102, 204); fill-opacity: 1; stroke: rgb(0, 0, 0); stroke-opacity: 0; opacity: 0.7;"/><g class="slicetext"><text data-notex="1" class="slicetext" text-anchor="middle" x="0" y="0" style="font-family: Lato; font-size: 14px; fill: rgb(0, 0, 0); fill-opacity: 1; white-space: pre;" transform="translate(230.50652775704313,581.6004150760073)"><tspan class="line" dy="0em" x="0" y="0">Sonstige</tspan><tspan class="line" dy="1.3em" x="0" y="0">24</tspan></text></g></g></g></g><g class="glimages"/><defs id="topdefs-5df624"><g class="clips"/></defs><g class="layer-above"><g class="imagelayer"/><g class="shapelayer"/></g><g class="infolayer"><g class="g-gtitle"/><g class="annotation" data-index="0" style="opacity: 1;"><g class="annotation-text-g" transform="rotate(0,369,31.90000000000001)"><g class="cursor-pointer" transform="translate(80,8)"><rect class="bg" x="0.5" y="0.5" width="577" height="47" style="stroke-width: 1px; stroke: rgb(0, 0, 0); stroke-opacity: 0; fill: rgb(0, 0, 0); fill-opacity: 0;"/><text class="annotation-text" text-anchor="middle" x="288.921875" y="38" style="font-family: Lato; font-size: 36px; fill: rgb(0, 0, 0); fill-opacity: 1; white-space: pre;">Übersetzungen in mehrere Sprachen</text></g></g></g><g class="annotation" data-index="1" style="opacity: 1;"><g class="annotation-text-g" transform="rotate(0,176,72.30000000000005)"><g class="cursor-pointer" transform="translate(80,59)"><rect class="bg" x="0.5" y="0.5" width="191" height="25" style="stroke-width: 1px; stroke: rgb(0, 0, 0); stroke-opacity: 0; fill: rgb(0, 0, 0); fill-opacity: 0;"/><text class="annotation-text" text-anchor="middle" x="96.171875" y="20" style="font-family: Lato; font-size: 18px; fill: rgb(162, 169, 177); fill-opacity: 1; white-space: pre;">Ton und/oder Untertitel</text></g></g></g><g class="annotation" data-index="2" style="opacity: 1;"><g class="annotation-text-g" transform="rotate(0,565,737.3000000000001)"><g class="cursor-pointer" transform="translate(442,728)"><rect class="bg" x="0.5" y="0.5" width="245" height="18" style="stroke-width: 1px; stroke: rgb(0, 0, 0); stroke-opacity: 0; fill: rgb(0, 0, 0); fill-opacity: 0;"/><text class="annotation-text" text-anchor="middle" x="122.921875" y="14" style="font-family: Lato; font-size: 12px; fill: rgb(162, 169, 177); fill-opacity: 1; white-space: pre; pointer-events: all;"><a xlink:show="new" target="_blank" xlink:href="https://commons.wikimedia.org/wiki/Category:Videos_by_Terra_X" style="cursor:pointer">Übersicht Terra-X-Videos</a> | Stand 25.01.2022 |</text></g></g></g><g class="annotation" data-index="3" style="opacity: 1;"><g class="annotation-text-g" transform="rotate(0,384,394)"><g class="cursor-pointer" transform="translate(361,335)"><rect class="bg" x="0.5" y="0.5" width="46" height="118" style="stroke-width: 1px; stroke: rgb(0, 0, 0); stroke-opacity: 0; fill: rgb(0, 0, 0); fill-opacity: 0;"/><text class="annotation-text" text-anchor="middle" x="23.703125" y="97" style="font-family: Lato; font-size: 96px; fill: rgb(0, 0, 0); fill-opacity: 1; white-space: pre;">/</text></g></g></g><g class="annotation" data-index="4" style="opacity: 1;"><g class="annotation-text-g" transform="rotate(0,338.4,379.3)"><g class="cursor-pointer" transform="translate(300,352)"><rect class="bg" x="0.5" y="0.5" width="76" height="53" style="stroke-width: 1px; stroke: rgb(0, 0, 0); stroke-opacity: 0; fill: rgb(0, 0, 0); fill-opacity: 0;"/><text class="annotation-text" text-anchor="middle" x="38.546875" y="43" style="font-family: Lato; font-size: 42px; fill: rgb(51, 102, 204); fill-opacity: 1; white-space: pre;">111</text></g></g></g><g class="annotation" data-index="5" style="opacity: 1;"><g class="annotation-text-g" transform="rotate(0,429.59999999999997,408.7)"><g class="cursor-pointer" transform="translate(396,385)"><rect class="bg" x="0.5" y="0.5" width="66" height="47" style="stroke-width: 1px; stroke: rgb(0, 0, 0); stroke-opacity: 0; fill: rgb(0, 0, 0); fill-opacity: 0;"/><text class="annotation-text" text-anchor="middle" x="33.328125" y="38" style="font-family: Lato; font-size: 36px; fill: rgb(0, 0, 0); fill-opacity: 1; white-space: pre;">231</text></g></g></g></g></svg>