<svg class="main-svg" xmlns="http://www.w3.org/2000/svg" xmlns:xlink="http://www.w3.org/1999/xlink" width="1366" height="768" style="" viewBox="0 0 1366 768"><rect x="0" y="0" width="1366" height="768" style="fill: rgb(0, 0, 0); fill-opacity: 0;"/><defs id="defs-b9567e"><g class="clips"><clipPath id="clipb9567exyplot" class="plotclip"><rect width="1206" height="588"/></clipPath><clipPath class="axesclip" id="clipb9567ex"><rect x="80" y="0" width="1206" height="768"/></clipPath><clipPath class="axesclip" id="clipb9567ey"><rect x="0" y="100" width="1366" height="588"/></clipPath><clipPath class="axesclip" id="clipb9567exy"><rect x="80" y="100" width="1206" height="588"/></clipPath></g><g class="gradients"/><g class="patterns"/></defs><g class="bglayer"><rect class="bg" x="80" y="100" width="1206" height="588" style="fill: rgb(0, 0, 0); fill-opacity: 0; stroke-width: 0;"/></g><g class="layer-below"><g class="imagelayer"/><g class="shapelayer"/></g><g class="cartesianlayer"><g class="subplot xy"><g class="layer-subplot"><g class="shapelayer"/><g class="imagelayer"/></g><g class="gridlayer"><g class="x"/><g class="y"><path class="ygrid crisp" transform="translate(0,542.38)" d="M80,0h1206" style="stroke: rgb(162, 169, 177); stroke-opacity: 1; stroke-width: 1px;"/><path class="ygrid crisp" transform="translate(0,423.31)" d="M80,0h1206" style="stroke: rgb(162, 169, 177); stroke-opacity: 1; stroke-width: 1px;"/><path class="ygrid crisp" transform="translate(0,304.25)" d="M80,0h1206" style="stroke: rgb(162, 169, 177); stroke-opacity: 1; stroke-width: 1px;"/><path class="ygrid crisp" transform="translate(0,185.19)" d="M80,0h1206" style="stroke: rgb(162, 169, 177); stroke-opacity: 1; stroke-width: 1px;"/></g></g><g class="zerolinelayer"><path class="yzl zl crisp" transform="translate(0,661.44)" d="M80,0h1206" style="stroke: rgb(0, 0, 0); stroke-opacity: 1; stroke-width: 1px;"/></g><path class="xlines-below"/><path class="ylines-below"/><g class="overlines-below"/><g class="xaxislayer-below"/><g class="yaxislayer-below"/><g class="overaxes-below"/><g class="plot" transform="translate(80,100)" clip-path="url(#clipb9567exyplot)"><g class="scatterlayer mlayer"><g class="trace scatter trace54ed8a" style="stroke-miterlimit: 2; opacity: 1;"><g class="fills"/><g class="errorbars"/><g class="lines"><path class="js-line" d="M0,550.94Q10.11,555.03 13.25,554.31C16.78,553.5 23,543.79 26.51,543.14C29.67,542.55 36.4,547.09 39.76,547.7C43.03,548.29 49.7,547.8 53.01,548.07C56.33,548.34 62.95,549.38 66.26,549.89C69.58,550.4 76.2,552.1 79.52,552.16C82.83,552.22 89.61,551.67 92.77,550.4C96.27,548.99 102.68,540.77 106.02,540.68C109.3,540.59 115.8,548.31 119.27,549.37C122.45,550.34 129.22,549.45 132.53,549.55C135.84,549.65 142.47,550.06 145.78,550.15C149.09,550.24 155.72,550.52 159.03,550.31C162.35,550.1 168.97,548.84 172.29,548.46C175.6,548.08 182.36,548.36 185.54,547.24C189.02,546.01 195.48,538.41 198.79,538.4C202.1,538.39 208.56,546.06 212.04,547.18C215.22,548.2 222.06,548.3 225.3,547.66C228.69,546.99 235.21,541.81 238.55,541.66C241.83,541.51 248.44,545.59 251.8,546.3C255.07,546.99 262.3,549.45 265.05,547.37C271.28,542.66 274.56,480.55 278.31,480.35C281.34,480.19 286.73,516.96 291.56,522.75C294.36,526.11 301.42,528.44 304.81,529.72C308.05,530.95 314.82,531.78 318.07,532.95C321.45,534.16 327.92,538.51 331.32,539.35C334.55,540.15 341.28,539.37 344.57,539.79C347.9,540.22 355.03,544.84 357.82,542.78C367.69,535.5 367.27,373.15 371.08,373.06C374.08,372.99 379.96,457.67 384.33,478.04C387.19,491.35 394.23,521.22 397.58,521.24C400.86,521.26 407.43,479.97 410.84,479.9C414.06,479.84 419.73,510.34 424.09,516.28C426.95,520.18 433.83,524.89 437.34,526.43C440.49,527.81 447.26,528.45 450.59,528.75C453.89,529.05 461.1,531.05 463.85,528.84C469.86,524.02 472.82,467.6 477.1,467.01C479.97,466.62 487.11,485.68 490.35,492.21C493.75,499.06 499.47,519.34 503.6,520.59C506.51,521.47 513.69,512.14 516.86,512.52C520.34,512.94 526.6,523.13 530.11,525.76C533.26,528.13 540.58,534.55 543.36,533.04C552.97,527.82 552.83,353.53 556.62,353.45C559.63,353.39 565.47,444.91 569.87,466.87C572.72,481.12 578.22,506.57 583.12,513.09C585.92,516.81 593.62,522.61 596.37,521.41C602.23,518.86 606.11,451.77 609.63,451.69C612.78,451.61 618.45,496.88 622.88,506.86C625.73,513.28 633.36,526.86 636.13,526.24C641.33,525.08 645.1,445.24 649.38,444.81C652.26,444.52 658.32,474.06 662.64,479.76C665.51,483.54 672.85,486.28 675.89,489.53C679.61,493.51 685.89,510.36 689.14,510.28C692.52,510.2 698.94,487.36 702.4,487.18C705.59,487.02 711.79,503.07 715.65,505.62C718.63,507.59 726.12,510.59 728.9,508.56C738.1,501.83 738.21,360.26 742.15,360.12C745.11,360.02 751.93,423.38 755.41,443.11C758.58,461.09 764.03,510.86 768.66,511.67C771.48,512.16 778.87,489.12 781.91,489.4C785.62,489.75 790.41,521.59 795.16,525.69C797.97,528.12 805.12,527.66 808.42,528.44C811.74,529.22 818.46,530.54 821.67,531.92C825.1,533.4 831.57,538.25 834.92,540.16C838.2,542.02 844.83,546.89 848.18,547.03C851.46,547.16 858.22,543.29 861.43,541.47C864.86,539.52 871.45,531.51 874.68,531.71C878.08,531.92 884.48,541.54 887.93,544.21C891.13,546.69 897.73,551.45 901.19,552.56C904.38,553.58 911.13,553.29 914.44,553.36C917.75,553.43 924.38,553.25 927.69,553.15C931.01,553.05 937.64,552.52 940.95,552.53C944.26,552.54 950.9,552.79 954.2,553.21C957.53,553.63 964.12,555.52 967.45,555.91C970.75,556.3 977.62,557.53 980.7,556.34C984.33,554.94 990.43,544.14 993.96,543.56C997.1,543.04 1003.87,549.67 1007.21,549.81C1010.49,549.94 1017.15,544.83 1020.46,544.83C1023.77,544.83 1030.34,549.16 1033.71,549.8C1036.97,550.42 1043.67,550.34 1046.97,550.04C1050.3,549.74 1056.91,548.1 1060.22,547.37C1063.54,546.63 1070.19,543.95 1073.47,544.15C1076.82,544.36 1083.42,547.9 1086.73,549.18C1090.05,550.47 1096.61,553.9 1099.98,554.44C1103.24,554.96 1109.93,553.41 1113.23,553.64C1116.56,553.88 1123.15,556.07 1126.48,556.35C1129.78,556.62 1136.44,556.2 1139.74,555.88C1143.06,555.56 1149.69,553.72 1152.99,553.81C1156.31,553.9 1162.91,556.29 1166.24,556.61C1169.53,556.93 1176.18,556.45 1179.49,556.41C1182.8,556.37 1189.44,556.25 1192.75,556.31Q1196.06,556.37 1206,556.89" style="vector-effect: non-scaling-stroke; fill: none; stroke: rgb(0, 175, 137); stroke-opacity: 1; stroke-width: 1px; opacity: 1;"/></g><g class="points"/><g class="text"/></g><g class="trace scatter trace02de83" style="stroke-miterlimit: 2; opacity: 1;"><g class="fills"/><g class="errorbars"/><g class="lines"><path class="js-line" d="M0,547.68Q9.94,549 13.25,548.9C16.57,548.8 23.19,547.06 26.51,546.84C29.81,546.62 36.58,548.04 39.76,547.15C43.23,546.18 49.63,538.94 53.01,538.69C56.26,538.45 62.9,543.4 66.26,544.59C69.53,545.75 76.21,548.19 79.52,548.17C82.84,548.15 89.43,545 92.77,544.41C96.05,543.83 102.76,544.17 106.02,543.47C109.38,542.75 115.93,539.68 119.27,538.64C122.56,537.62 129.19,535.54 132.53,535.2C135.82,534.86 142.49,535.38 145.78,535.85C149.11,536.32 155.7,538.32 159.03,538.98C162.33,539.63 168.99,541.27 172.29,541.1C175.62,540.93 182.28,538.76 185.54,537.56C188.91,536.32 195.42,531.56 198.79,531.24C202.05,530.93 208.78,535.01 212.04,534.72C215.41,534.42 221.91,529.53 225.3,528.56C228.54,527.64 235.23,527 238.55,526.95C241.86,526.9 248.48,527.99 251.8,528.15C255.11,528.31 261.98,529.52 265.05,528.27C268.7,526.78 274.69,516.14 278.31,515.09C281.4,514.2 288.26,518.14 291.56,518.03C294.89,517.92 301.48,514.36 304.81,514.18C308.1,514 314.74,516.2 318.07,516.53C321.37,516.86 328.01,516.92 331.32,516.86C334.63,516.8 341.37,515.28 344.57,516.05C348.01,516.88 354.87,524.68 357.82,523.86C361.79,522.75 366.89,502.07 371.08,499.28C373.97,497.35 381.33,496.68 384.33,497.96C388.14,499.58 393.76,512.88 397.58,514.82C400.58,516.34 407.6,515.93 410.84,515.28C414.24,514.6 420.78,509.16 424.09,509.18C427.41,509.2 434.11,513.6 437.34,515.49C440.74,517.48 447.35,525 450.59,524.81C453.99,524.61 460.36,515.21 463.85,512.89C467.02,510.79 473.72,507.78 477.1,506.64C480.35,505.55 487.05,503.76 490.35,503.84C493.67,503.92 500.31,506.29 503.6,507.31C506.94,508.35 513.49,511.63 516.86,512.11C520.13,512.58 526.91,510.53 530.11,511.3C533.55,512.13 540.29,519.75 543.36,519.14C547.03,518.41 552.87,504.43 556.62,501.51C559.65,499.15 566.64,495.66 569.87,495.96C573.27,496.28 579.68,503.1 583.12,504.69C586.33,506.17 593.02,508.15 596.37,508.57C599.65,508.98 606.42,507.34 609.63,508.11C613.06,508.93 619.48,514.09 622.88,515.42C626.11,516.69 633.2,519.93 636.13,518.71C640.15,517.04 645.37,499.77 649.38,496.7C652.32,494.45 659.34,492.83 662.64,492.93C665.97,493.03 672.53,496.88 675.89,497.59C679.16,498.28 686.13,499.94 689.14,498.63C692.95,496.97 698.63,483.19 702.4,481.95C705.42,480.96 712.82,486.95 715.65,485.54C720.22,483.26 726.12,465.7 728.9,452.38C738.42,406.81 726.47,56.78 742.15,34.58C745.04,30.48 752.53,27.51 755.41,29.4C770.01,38.99 761.06,347.87 768.66,395.62C771.41,412.91 778.46,430.81 781.91,441.82C785.1,451.99 791.45,472.22 795.16,480.66C798.21,487.59 804.6,500.37 808.42,504.97C811.42,508.59 818.13,514.77 821.67,515.79C824.8,516.69 831.72,513.44 834.92,514.11C838.36,514.84 844.74,520.79 848.18,522.08C851.39,523.28 858.11,524.08 861.43,524.45C864.73,524.82 871.41,524.42 874.68,525.04C878.04,525.68 884.7,528.04 887.93,529.57C891.34,531.19 897.75,536.38 901.19,537.81C904.4,539.14 911.11,540.75 914.44,540.92C917.74,541.08 924.37,539.4 927.69,539.18C931,538.97 937.67,538.71 940.95,539.19C944.3,539.68 950.86,542.46 954.2,543.12C957.48,543.76 964.14,544.15 967.45,544.43C970.76,544.71 977.43,545.8 980.7,545.39C984.06,544.97 990.92,543.09 993.96,541.01C997.68,538.47 1003.45,526.29 1007.21,524.94C1010.23,523.85 1017.14,527.35 1020.46,527.49C1023.76,527.63 1030.76,524.67 1033.71,526.06C1037.68,527.94 1042.99,543.93 1046.97,546.25C1049.92,547.97 1056.91,546.94 1060.22,547.13C1063.53,547.32 1070.17,547.36 1073.47,547.77C1076.8,548.18 1083.4,550.01 1086.73,550.44C1090.03,550.87 1096.67,551.2 1099.98,551.24C1103.29,551.28 1109.93,551.14 1113.23,550.76C1116.56,550.38 1123.41,549.86 1126.48,548.17C1130.15,546.15 1136.37,534.19 1139.74,534.09C1143,533.99 1149.42,544.46 1152.99,546.52C1156.11,548.32 1162.9,549.84 1166.24,550.54C1169.52,551.23 1176.17,551.86 1179.49,552.15C1182.8,552.44 1189.43,552.8 1192.75,552.84Q1196.06,552.88 1206,552.47" style="vector-effect: non-scaling-stroke; fill: none; stroke: rgb(51, 102, 204); stroke-opacity: 1; stroke-width: 1px; opacity: 1;"/></g><g class="points"/><g class="text"/></g><g class="trace scatter traceab7a2b" style="stroke-miterlimit: 2; opacity: 1;"><g class="fills"/><g class="errorbars"/><g class="lines"><path class="js-line" d="M0,553.28Q10.08,556.45 13.25,555.74C16.74,554.96 23.08,546.65 26.51,546.23C29.72,545.84 36.45,551.52 39.76,551.5C43.08,551.48 49.67,546.23 53.01,546.09C56.3,545.95 62.95,549.18 66.26,550.21C69.58,551.25 76.19,554.25 79.52,554.37C82.82,554.49 89.43,551.57 92.77,551.22C96.06,550.88 102.73,551.14 106.02,551.57C109.35,552 116.11,555.37 119.27,554.68C122.78,553.92 129.08,544.84 132.53,544.41C135.73,544.01 142.44,550.05 145.78,550.21C149.06,550.36 155.69,546.71 159.03,545.83C162.32,544.96 169.13,544.61 172.29,543.2C175.79,541.63 182.32,532.99 185.54,533.22C188.96,533.46 195.21,544.24 198.79,546.55C201.9,548.56 208.71,551.39 212.04,551.5C215.34,551.61 221.95,548.03 225.3,547.52C228.58,547.02 235.41,548.45 238.55,547.36C242.08,546.13 248.36,537.55 251.8,537.13C255,536.74 262.3,544.42 265.05,542.96C271.31,539.62 274.71,468.95 278.31,468.84C281.41,468.74 286.15,516.6 291.56,523.17C294.32,526.53 301.42,528.8 304.81,529.29C308.06,529.76 314.83,526.84 318.07,527.36C321.47,527.9 327.97,533.77 331.32,533.93C334.6,534.09 341.25,528.9 344.57,528.87C347.88,528.84 355.07,535.38 357.82,533.69C365.46,529.01 367.17,425.9 371.08,425.72C374.05,425.59 380.47,474.11 384.33,487.24C387.32,497.4 393.3,516.58 397.58,522.5C400.46,526.48 407.3,532.15 410.84,533.2C413.97,534.13 420.91,532.99 424.09,531.85C427.56,530.6 434.06,522.91 437.34,523.01C440.69,523.12 447.27,533.11 450.59,533.13C453.9,533.15 460.37,523.94 463.85,523.27C467.02,522.66 474.35,528.5 477.1,526.8C483.14,523.06 486.81,462.01 490.35,461.91C493.48,461.82 498.16,508.17 503.6,511.88C506.37,513.76 513.78,509.28 516.86,510.34C520.5,511.6 526.67,520.59 530.11,523.47C533.31,526.15 540.61,534.03 543.36,532.81C550.55,529.61 552.74,422.62 556.62,422.46C559.6,422.33 563.78,482.14 569.87,486.61C572.62,488.63 580.12,483.98 583.12,485.27C586.94,486.91 593.06,498.11 596.37,502.41C599.69,506.73 606.07,516.14 609.63,519.74C612.75,522.9 619.4,528.25 622.88,530.1C626.05,531.78 633.32,535.78 636.13,534.39C640.87,532.06 644.61,501.53 649.38,497.14C652.19,494.55 659.47,492.99 662.64,493.62C666.13,494.32 672.9,500.27 675.89,503.75C679.74,508.23 685.49,527.53 689.14,527.98C692.21,528.36 698.73,515.81 702.4,513.64C705.47,511.83 712.35,510.25 715.65,510.34C718.98,510.43 726.07,516.39 728.9,514.42C740.77,506.14 736.49,270.82 742.15,270.32C744.91,270.08 752.55,309.49 755.41,326.8C759.81,353.45 763.95,438.5 768.66,463.68C771.47,478.72 777.99,501.18 781.91,510.94C784.88,518.33 791,532.47 795.16,535.76C798.06,538.06 805.09,538.51 808.42,539.26C811.72,540.01 818.35,541.68 821.67,541.76C824.98,541.84 831.72,539.24 834.92,539.88C838.36,540.57 844.75,546.47 848.18,547.74C851.39,548.92 858.19,550.5 861.43,550.03C864.82,549.54 871.27,544.2 874.68,543.51C877.91,542.86 884.65,543.7 887.93,544.31C891.28,544.93 897.84,547.74 901.19,548.52C904.47,549.28 911.25,551.18 914.44,550.5C917.9,549.76 924.36,542.1 927.69,542.04C930.99,541.98 937.52,548.61 940.95,549.85C944.16,551.01 950.88,551.54 954.2,552.01C957.51,552.48 964.14,553.6 967.45,553.64C970.76,553.68 977.65,553.87 980.7,552.35C984.4,550.51 990.53,538.16 993.96,537.92C997.17,537.7 1003.71,548.16 1007.21,548.82C1010.37,549.41 1017.2,544.21 1020.46,544.45C1023.82,544.7 1030.32,549.92 1033.71,551.12C1036.95,552.27 1043.64,553.6 1046.97,554.03C1050.26,554.46 1056.95,555.05 1060.22,554.59C1063.58,554.12 1070.12,550.97 1073.47,550.17C1076.75,549.39 1083.44,548.03 1086.73,548.23C1090.06,548.43 1096.86,552.59 1099.98,551.84C1103.55,550.98 1109.91,539.74 1113.23,539.73C1116.54,539.72 1122.89,550.51 1126.48,551.68C1129.59,552.69 1136.42,550.31 1139.74,550.27C1143.05,550.23 1149.69,550.86 1152.99,551.35C1156.32,551.85 1162.99,554.63 1166.24,554.26C1169.62,553.88 1176.14,548.19 1179.49,548.01C1182.77,547.83 1189.39,552.17 1192.75,552.57Q1196.02,552.96 1206,551.33" style="vector-effect: non-scaling-stroke; fill: none; stroke: rgb(221, 51, 51); stroke-opacity: 1; stroke-width: 1px; opacity: 1;"/></g><g class="points"/><g class="text"/></g><g class="trace scatter trace32e1d8" style="stroke-miterlimit: 2; opacity: 1;"><g class="fills"/><g class="errorbars"/><g class="lines"><path class="js-line" d="M0,549.3Q9.97,552.44 13.25,552.19C16.6,551.93 23.21,547.02 26.51,547.09C29.84,547.16 36.37,552.15 39.76,552.86C43,553.54 49.7,553.03 53.01,552.93C56.32,552.83 62.95,552 66.26,552.06C69.58,552.12 76.2,553.28 79.52,553.43C82.83,553.58 89.46,553.25 92.77,553.25C96.08,553.25 102.71,553.54 106.02,553.41C109.34,553.28 115.95,552.35 119.27,552.18C122.58,552.01 129.22,552.02 132.53,552.08C135.84,552.14 142.48,552.94 145.78,552.67C149.11,552.4 155.7,550.18 159.03,549.88C162.33,549.58 168.98,550.13 172.29,550.26C175.6,550.39 182.23,550.91 185.54,550.9C188.85,550.89 195.48,550.1 198.79,550.14C202.1,550.18 208.72,551.08 212.04,551.24C215.35,551.4 221.99,551.49 225.3,551.43C228.61,551.37 235.27,551.26 238.55,550.73C241.89,550.19 248.52,548.21 251.8,547.1C255.15,545.96 262.21,544.55 265.05,541.69C269.53,537.18 274.86,508.76 278.31,508.64C281.5,508.53 287.41,531.82 291.56,536.06C294.46,539.02 301.4,541.98 304.81,542.79C308.03,543.55 314.76,542.48 318.07,542.71C321.39,542.94 328,544.31 331.32,544.65C334.63,544.98 341.26,545.07 344.57,545.39C347.89,545.72 355.07,549.21 357.82,547.26C364,542.87 367.27,480.97 371.08,480.73C374.08,480.54 380.4,512.58 384.33,520.63C387.29,526.71 393.65,537.81 397.58,540.56C400.54,542.64 407.51,543.16 410.84,543.79C414.14,544.42 420.87,546.21 424.09,545.61C427.51,544.97 433.93,538.74 437.34,538.26C440.57,537.81 447.28,541.35 450.59,541.33C453.91,541.31 460.55,538 463.85,538.09C467.18,538.18 474.05,543 477.1,542.1C480.8,541.01 486.86,526.87 490.35,526.51C493.51,526.18 500.62,537.46 503.6,536.82C507.48,535.98 513.37,511.77 516.86,511.57C520.03,511.39 526.19,528.51 530.11,531.12C533.08,533.1 540.62,535.68 543.36,533.81C549.84,529.4 552.94,459.72 556.62,459.57C559.68,459.45 565.68,500.42 569.87,510.08C572.76,516.74 580.1,531.41 583.12,531.09C586.89,530.69 592.55,495.28 596.37,494.82C599.37,494.46 606.24,509.9 609.63,514.65C612.88,519.2 619.21,528.87 622.88,532.09C625.94,534.77 633.28,540.66 636.13,539.64C640.58,538.04 645.17,505.77 649.38,504.72C652.27,504 659.31,513.49 662.64,516.35C665.94,519.18 672.38,525.53 675.89,527.47C679.04,529.21 685.85,531.89 689.14,531.75C692.48,531.61 699.02,526.67 702.4,526.18C705.65,525.71 712.33,527.5 715.65,527.64C718.96,527.78 726.14,529.83 728.9,527.3C737.13,519.76 737.49,410.64 742.15,410.17C744.97,409.89 751.65,442.48 755.41,451.31C758.44,458.42 765.64,468.87 768.66,476C772.42,484.88 777.9,509.28 781.91,517.44C784.85,523.41 791.28,533.88 795.16,536.61C798.14,538.71 805.08,539.48 808.42,540.15C811.71,540.82 818.35,541.68 821.67,541.99C824.98,542.3 831.65,542.01 834.92,542.61C838.28,543.23 845.06,547.67 848.18,546.96C851.75,546.15 857.8,535.64 861.43,534.24C864.51,533.05 871.61,535.83 874.68,534.59C878.34,533.11 884.57,521.23 887.93,521.13C891.2,521.04 897.96,529.89 901.19,533.13C904.59,536.55 910.74,545.87 914.44,547.88C917.49,549.54 924.38,549.44 927.69,549.97C931.01,550.51 937.63,551.68 940.95,552.16C944.26,552.64 950.89,553.29 954.2,553.78C957.52,554.27 964.13,555.79 967.45,556.09C970.75,556.39 977.39,556.26 980.7,556.2C984.02,556.14 990.65,555.86 993.96,555.61C997.28,555.36 1003.9,554.26 1007.21,554.22C1010.52,554.18 1017.15,554.92 1020.46,555.3C1023.78,555.68 1030.39,556.89 1033.71,557.27C1037.02,557.65 1043.65,558.21 1046.97,558.37C1050.28,558.53 1056.91,558.7 1060.22,558.58C1063.54,558.46 1070.16,557.71 1073.47,557.43C1076.78,557.15 1083.46,557.05 1086.73,556.36C1090.09,555.65 1096.67,551.71 1099.98,551.75C1103.3,551.79 1109.97,556.95 1113.23,556.73C1116.6,556.5 1123.11,549.76 1126.48,549.54C1129.75,549.32 1136.46,554.74 1139.74,554.59C1143.09,554.43 1149.66,548.13 1152.99,548.08C1156.29,548.03 1162.89,552.78 1166.24,554.06C1169.52,555.31 1176.14,557.79 1179.49,558.26C1182.77,558.72 1189.44,557.88 1192.75,557.92Q1196.06,557.96 1206,558.6" style="vector-effect: non-scaling-stroke; fill: none; stroke: rgb(32, 33, 34); stroke-opacity: 1; stroke-width: 1px; opacity: 1;"/></g><g class="points"/><g class="text"/></g></g></g><g class="overplot"/><path class="xlines-above crisp" d="M0,0" style="fill: none;"/><path class="ylines-above crisp" d="M79.5,100V688" style="fill: none; stroke-width: 1px; stroke: rgb(0, 0, 0); stroke-opacity: 1;"/><g class="overlines-above"/><g class="xaxislayer-above"><g class="xtick"><text text-anchor="middle" x="0" y="701" transform="translate(80,0)" style="font-family: Lato; font-size: 12px; fill: rgb(0, 0, 0); fill-opacity: 1; white-space: pre; opacity: 1;"> 1. August</text></g><g class="xtick"><text text-anchor="middle" x="0" y="701" style="font-family: Lato; font-size: 12px; fill: rgb(0, 0, 0); fill-opacity: 1; white-space: pre; opacity: 1;" transform="translate(265.53999999999996,0)">15. August</text></g><g class="xtick"><text text-anchor="middle" x="0" y="701" style="font-family: Lato; font-size: 12px; fill: rgb(0, 0, 0); fill-opacity: 1; white-space: pre; opacity: 1;" transform="translate(451.08,0)">29. August</text></g><g class="xtick"><text text-anchor="middle" x="0" y="701" style="font-family: Lato; font-size: 12px; fill: rgb(0, 0, 0); fill-opacity: 1; white-space: pre; opacity: 1;" transform="translate(636.62,0)">12. September</text></g><g class="xtick"><text text-anchor="middle" x="0" y="701" style="font-family: Lato; font-size: 12px; fill: rgb(0, 0, 0); fill-opacity: 1; white-space: pre; opacity: 1;" transform="translate(822.15,0)">26. September</text></g><g class="xtick"><text text-anchor="middle" x="0" y="701" style="font-family: Lato; font-size: 12px; fill: rgb(0, 0, 0); fill-opacity: 1; white-space: pre; opacity: 1;" transform="translate(1007.69,0)">10. October</text></g><g class="xtick"><text text-anchor="middle" x="0" y="701" style="font-family: Lato; font-size: 12px; fill: rgb(0, 0, 0); fill-opacity: 1; white-space: pre; opacity: 1;" transform="translate(1193.23,0)">24. October</text></g></g><g class="yaxislayer-above"><g class="ytick"><text text-anchor="end" x="76.6" y="4.199999999999999" transform="translate(0,661.44)" style="font-family: Lato; font-size: 12px; fill: rgb(0, 0, 0); fill-opacity: 1; white-space: pre; opacity: 1;">0</text></g><g class="ytick"><text text-anchor="end" x="76.6" y="4.199999999999999" style="font-family: Lato; font-size: 12px; fill: rgb(0, 0, 0); fill-opacity: 1; white-space: pre; opacity: 1;" transform="translate(0,542.38)">50k</text></g><g class="ytick"><text text-anchor="end" x="76.6" y="4.199999999999999" style="font-family: Lato; font-size: 12px; fill: rgb(0, 0, 0); fill-opacity: 1; white-space: pre; opacity: 1;" transform="translate(0,423.31)">100k</text></g><g class="ytick"><text text-anchor="end" x="76.6" y="4.199999999999999" style="font-family: Lato; font-size: 12px; fill: rgb(0, 0, 0); fill-opacity: 1; white-space: pre; opacity: 1;" transform="translate(0,304.25)">150k</text></g><g class="ytick"><text text-anchor="end" x="76.6" y="4.199999999999999" style="font-family: Lato; font-size: 12px; fill: rgb(0, 0, 0); fill-opacity: 1; white-space: pre; opacity: 1;" transform="translate(0,185.19)">200k</text></g></g><g class="overaxes-above"/></g></g><g class="polarlayer"/><g class="ternarylayer"/><g class="geolayer"/><g class="funnelarealayer"/><g class="pielayer"/><g class="iciclelayer"/><g class="treemaplayer"/><g class="sunburstlayer"/><g class="glimages"/><defs id="topdefs-b9567e"><g class="clips"/><clipPath id="legendb9567e"><rect width="538" height="29" x="0" y="0"/></clipPath></defs><g class="layer-above"><g class="imagelayer"/><g class="shapelayer"><path data-index="0" fill-rule="evenodd" d="M822.15,688L822.15,100" clip-path="url(#clipb9567ex)" style="opacity: 1; stroke: rgb(0, 0, 0); stroke-opacity: 1; fill: rgb(0, 0, 0); fill-opacity: 0; stroke-dasharray: 9px, 9px; stroke-width: 1px;"/></g></g><g class="infolayer"><g class="legend" pointer-events="all" transform="translate(80,71)"><rect class="bg" shape-rendering="crispEdges" style="stroke: rgb(68, 68, 68); stroke-opacity: 1; fill: rgb(0, 0, 0); fill-opacity: 0; stroke-width: 0px;" width="538" height="29" x="0" y="0"/><g class="scrollbox" transform="" clip-path="url(#legendb9567e)"><g class="groups" transform=""><g class="traces" transform="translate(0,14.5)" style="opacity: 1;"><text class="legendtext" text-anchor="start" x="40" y="4.680000000000001" style="font-family: Lato; font-size: 12px; fill: rgb(0, 0, 0); fill-opacity: 1; white-space: pre;">Bundestagswahl 2021</text><g class="layers" style="opacity: 1;"><g class="legendfill"/><g class="legendlines"><path class="js-line" d="M5,0h30" style="fill: none; stroke: rgb(51, 102, 204); stroke-opacity: 1; stroke-width: 1px;"/></g><g class="legendsymbols"><g class="legendpoints"/></g></g><rect class="legendtoggle" x="0" y="-9.5" width="159.28125" height="19" style="fill: rgb(0, 0, 0); fill-opacity: 0;"/></g></g><g class="groups" transform="translate(161.78125,0)"><g class="traces" transform="translate(0,14.5)" style="opacity: 1;"><text class="legendtext" text-anchor="start" x="40" y="4.680000000000001" style="font-family: Lato; font-size: 12px; fill: rgb(0, 0, 0); fill-opacity: 1; white-space: pre;">Annalena Baerbock</text><g class="layers" style="opacity: 1;"><g class="legendfill"/><g class="legendlines"><path class="js-line" d="M5,0h30" style="fill: none; stroke: rgb(0, 175, 137); stroke-opacity: 1; stroke-width: 1px;"/></g><g class="legendsymbols"><g class="legendpoints"/></g></g><rect class="legendtoggle" x="0" y="-9.5" width="146.453125" height="19" style="fill: rgb(0, 0, 0); fill-opacity: 0;"/></g></g><g class="groups" transform="translate(310.734375,0)"><g class="traces" transform="translate(0,14.5)" style="opacity: 1;"><text class="legendtext" text-anchor="start" x="40" y="4.680000000000001" style="font-family: Lato; font-size: 12px; fill: rgb(0, 0, 0); fill-opacity: 1; white-space: pre;">Armin Laschet</text><g class="layers" style="opacity: 1;"><g class="legendfill"/><g class="legendlines"><path class="js-line" d="M5,0h30" style="fill: none; stroke: rgb(32, 33, 34); stroke-opacity: 1; stroke-width: 1px;"/></g><g class="legendsymbols"><g class="legendpoints"/></g></g><rect class="legendtoggle" x="0" y="-9.5" width="119.53125" height="19" style="fill: rgb(0, 0, 0); fill-opacity: 0;"/></g></g><g class="groups" transform="translate(432.765625,0)"><g class="traces" transform="translate(0,14.5)" style="opacity: 1;"><text class="legendtext" text-anchor="start" x="40" y="4.680000000000001" style="font-family: Lato; font-size: 12px; fill: rgb(0, 0, 0); fill-opacity: 1; white-space: pre;">Olaf Scholz</text><g class="layers" style="opacity: 1;"><g class="legendfill"/><g class="legendlines"><path class="js-line" d="M5,0h30" style="fill: none; stroke: rgb(221, 51, 51); stroke-opacity: 1; stroke-width: 1px;"/></g><g class="legendsymbols"><g class="legendpoints"/></g></g><rect class="legendtoggle" x="0" y="-9.5" width="102.515625" height="19" style="fill: rgb(0, 0, 0); fill-opacity: 0;"/></g></g></g><rect class="scrollbar" rx="20" ry="3" width="0" height="0" style="fill: rgb(128, 139, 164); fill-opacity: 1;" x="0" y="0"/></g><g class="g-gtitle"/><g class="g-xtitle"/><g class="g-ytitle"/><g class="annotation" data-index="0" style="opacity: 1;"><g class="annotation-text-g" transform="rotate(0,257,17.199999999999935)"><g class="cursor-pointer" transform="translate(80,-7)"><rect class="bg" x="0.5" y="0.5" width="353" height="47" style="stroke-width: 1px; stroke: rgb(0, 0, 0); stroke-opacity: 0; fill: rgb(0, 0, 0); fill-opacity: 0;"/><text class="annotation-text" text-anchor="middle" x="177.109375" y="38" style="font-family: Lato; font-size: 36px; fill: rgb(0, 0, 0); fill-opacity: 1; white-space: pre;">Bundestagswahl 2021</text></g></g></g><g class="annotation" data-index="1" style="opacity: 1;"><g class="annotation-text-g" transform="rotate(0,82,68.59999999999997)"><g class="cursor-pointer" transform="translate(80,67)"><rect class="bg" x="0.5" y="0.5" width="3" height="3" style="stroke-width: 1px; stroke: rgb(0, 0, 0); stroke-opacity: 0; fill: rgb(0, 0, 0); fill-opacity: 0;"/><text class="annotation-text" text-anchor="middle" x="2" y="2" style="font-family: Lato; font-size: 18px; fill: rgb(162, 169, 177); fill-opacity: 1; white-space: pre;"></text></g></g></g><g class="annotation" data-index="2" style="opacity: 1;"><g class="annotation-text-g" transform="rotate(0,1117.5,737.3000000000001)"><g class="cursor-pointer" transform="translate(949,728)"><rect class="bg" x="0.5" y="0.5" width="336" height="18" style="stroke-width: 1px; stroke: rgb(0, 0, 0); stroke-opacity: 0; fill: rgb(0, 0, 0); fill-opacity: 0;"/><text class="annotation-text" text-anchor="middle" x="168.921875" y="14" style="font-family: Lato; font-size: 12px; fill: rgb(162, 169, 177); fill-opacity: 1; white-space: pre; pointer-events: all;">Video- und Artikelabrufstatistiken via <a xlink:show="new" target="_blank" xlink:href="https://pageviews.toolforge.org" style="cursor:pointer">pageviews.toolforge.org</a> |</text></g></g></g><g class="annotation" data-index="3" style="opacity: 1;"><g class="annotation-text-g" transform="rotate(0,441.08,443.06)"><g class="cursor-pointer" transform="translate(415,434)"><rect class="bg" x="0.5" y="0.5" width="52" height="18" style="stroke-width: 1px; stroke: rgb(0, 0, 0); stroke-opacity: 0; fill: rgb(0, 0, 0); fill-opacity: 0;"/><text class="annotation-text" text-anchor="middle" x="26.1875" y="14" style="font-family: Lato; font-size: 12px; fill: rgb(0, 0, 0); fill-opacity: 1; white-space: pre;">RTL-Triell</text></g></g><g class="annotation-arrow-g" style="opacity: 1;"><path d="M444.08,452.06L451.08,473.06" style="stroke-width: 1px; stroke: rgb(42, 63, 95); stroke-opacity: 1; stroke-dasharray: 0px, 0px, 18.8359px, 22.1359px;"/><path d="M-3.7,-2.5V2.5L1.3,0Z" transform="translate(450.03643798828125,469.9293518066406)rotate(71.57058005668189)" style="fill: rgb(42, 63, 95); stroke-width: 0;"/></g></g><g class="annotation" data-index="4" style="opacity: 1;"><g class="annotation-text-g" transform="rotate(0,626.62,423.45)"><g class="cursor-pointer" transform="translate(583,414)"><rect class="bg" x="0.5" y="0.5" width="86" height="18" style="stroke-width: 1px; stroke: rgb(0, 0, 0); stroke-opacity: 0; fill: rgb(0, 0, 0); fill-opacity: 0;"/><text class="annotation-text" text-anchor="middle" x="43.890625" y="14" style="font-family: Lato; font-size: 12px; fill: rgb(0, 0, 0); fill-opacity: 1; white-space: pre;">ARD/ZDF-Triell</text></g></g><g class="annotation-arrow-g" style="opacity: 1;"><path d="M629.62,432.45L636.62,453.45" style="stroke-width: 1px; stroke: rgb(42, 63, 95); stroke-opacity: 1; stroke-dasharray: 0px, 0px, 18.8359px, 22.1359px;"/><path d="M-3.7,-2.5V2.5L1.3,0Z" transform="translate(635.576416015625,450.3193664550781)rotate(71.57058005668189)" style="fill: rgb(42, 63, 95); stroke-width: 0;"/></g></g><g class="annotation" data-index="5" style="opacity: 1;"><g class="annotation-text-g" transform="rotate(0,719.38,514.81)"><g class="cursor-pointer" transform="translate(674,505)"><rect class="bg" x="0.5" y="0.5" width="89" height="18" style="stroke-width: 1px; stroke: rgb(0, 0, 0); stroke-opacity: 0; fill: rgb(0, 0, 0); fill-opacity: 0;"/><text class="annotation-text" text-anchor="middle" x="44.78125" y="14" style="font-family: Lato; font-size: 12px; fill: rgb(0, 0, 0); fill-opacity: 1; white-space: pre;">Pro7/Sat.1-Triell</text></g></g><g class="annotation-arrow-g" style="opacity: 1;"><path d="M722.38,523.81L729.38,544.81" style="stroke-width: 1px; stroke: rgb(42, 63, 95); stroke-opacity: 1; stroke-dasharray: 0px, 0px, 18.8359px, 22.1359px;"/><path d="M-3.7,-2.5V2.5L1.3,0Z" transform="translate(728.33642578125,541.6793212890625)rotate(71.56505117707799)" style="fill: rgb(42, 63, 95); stroke-width: 0;"/></g></g><g class="annotation" data-index="6" style="opacity: 1;"><g class="annotation-text-g" transform="rotate(0,742.4,244.72)"><g class="cursor-pointer" transform="translate(676,232)"><rect class="bg" x="0.5" y="0.5" width="132" height="25" style="stroke-width: 1px; stroke: rgb(0, 0, 0); stroke-opacity: 0; fill: rgb(0, 0, 0); fill-opacity: 0;"/><text class="annotation-text" text-anchor="middle" x="66.375" y="20" style="font-family: Lato; font-size: 18px; fill: rgb(0, 0, 0); fill-opacity: 1; white-space: pre;">Bundestagswahl</text></g></g></g></g></svg>