<?xml version="1.0" encoding="UTF-8"?>
<!-- Generator: Adobe Illustrator 15.1.0, SVG Export Plug-In . SVG Version: 6.00 Build 0)  -->
<!DOCTYPE svg PUBLIC "-//W3C//DTD SVG 1.1//EN" "http://www.w3.org/Graphics/SVG/1.1/DTD/svg11.dtd">
<svg version="1.1" id="svg67" xmlns:svg="http://www.w3.org/2000/svg" xmlns:inkscape="http://www.inkscape.org/namespaces/inkscape" xmlns:sodipodi="http://sodipodi.sourceforge.net/DTD/sodipodi-0.dtd" xmlns:cc="http://creativecommons.org/ns#" xmlns:dc="http://purl.org/dc/elements/1.1/" xmlns:rdf="http://www.w3.org/1999/02/22-rdf-syntax-ns#" xmlns="http://www.w3.org/2000/svg" xmlns:xlink="http://www.w3.org/1999/xlink" x="0px" y="0px" width="841.889px" height="765.077px" viewBox="0 228.557 841.889 765.077" enable-background="new 0 228.557 841.889 765.077" xml:space="preserve">
<sodipodi:namedview inkscape:window-x="0" gridtolerance="10" guidetolerance="10" bordercolor="#666666" fit-margin-top="0" fit-margin-right="0" inkscape:cy="63.080449" inkscape:window-height="480" showgrid="false" fit-margin-left="0" fit-margin-bottom="0" inkscape:window-maximized="0" borderopacity="1" inkscape:window-y="0" inkscape:current-layer="svg67" inkscape:cx="68.234138" pagecolor="#ffffff" id="namedview69" inkscape:pageshadow="2" objecttolerance="10" inkscape:pageopacity="0" inkscape:window-width="679" inkscape:zoom="1.5733333">
	</sodipodi:namedview>
<g id="g61">
	<g>
		<g>
			<defs>
				
					<rect id="SVGID_1_" x="-141.124" y="43.168" transform="matrix(-0.9999 0.0105 -0.0105 -0.9999 847.5225 1390.2383)" width="1122.492" height="1308.34"/>
			</defs>
			<clipPath id="SVGID_2_">
				<use xlink:href="#SVGID_1_" overflow="visible"/>
			</clipPath>
			<g id="g19" clip-path="url(#SVGID_2_)">
				<g id="g9" transform="rotate(-6.0233,1011.1,-730.36)">
					<g id="path7">
						<g>
							<path fill="#006499" d="M591.403,628.31l-3.78-4.658c121.449-98.583,140.71-277.517,42.938-398.874l4.671-3.765         c48.495,60.191,70.65,135.629,62.387,212.415C689.354,510.212,651.633,579.422,591.403,628.31z M-36.671,560.715         c-48.446-60.587-70.576-136.239-62.311-213.021c8.265-76.786,45.965-145.781,106.156-194.275l3.765,4.672         c-121.358,97.773-140.613,276.708-42.924,398.875L-36.671,560.715z M527.392,554.435l-3.765-4.671         c39.095-31.499,64.583-78.021,69.922-127.637c5.342-49.618-9.662-100.497-41.161-139.593l4.673-3.765         c32.489,40.327,47.965,92.813,42.454,144C594.005,473.955,567.717,521.946,527.392,554.435z M41.597,502.151         C9.108,461.825-6.367,409.339-0.857,358.152c5.51-51.187,31.798-99.179,72.124-131.668l3.765,4.671         c-39.097,31.499-64.582,78.021-69.924,127.638c-5.34,49.617,9.663,100.497,41.162,139.592L41.597,502.151z"/>
							<g>
								<path fill="#006699" d="M588.806,642.968l-17.013-20.964l8.151-6.617c116.97-94.947,135.532-267.268,41.379-384.134          l-6.587-8.176l21.023-16.941l6.589,8.177c50.254,62.375,73.214,140.551,64.649,220.126          c-8.561,79.557-47.639,151.263-110.037,201.91L588.806,642.968z M-39.374,575.363l-6.559-8.202          c-50.189-62.766-73.113-141.147-64.55-220.702c8.565-79.574,47.633-151.074,110.008-201.328l8.176-6.587l16.942,21.024          l-8.177,6.588c-116.866,94.154-135.398,266.479-41.311,384.141l6.556,8.199L-39.374,575.363z M524.742,569.086          l-16.94-21.023l8.176-6.588c36.945-29.766,61.026-73.717,66.069-120.584c5.046-46.869-9.131-94.938-38.897-131.883          l-6.587-8.175l21.025-16.942l6.589,8.177c34.224,42.48,50.523,97.777,44.718,151.712          c-5.805,53.935-33.498,104.496-75.976,138.719L524.742,569.086z M38.947,516.803l-6.588-8.177          c-34.224-42.478-50.523-97.774-44.718-151.71c5.805-53.936,33.498-104.497,75.976-138.72l8.175-6.586l16.943,21.021          l-8.178,6.589c-36.944,29.764-61.026,73.716-66.071,120.585c-5.044,46.869,9.134,94.938,38.899,131.881l6.587,8.176          L38.947,516.803z"/>
								<path fill="#006699" d="M587.783,652.815l-25.835-31.833l13.586-11.028c113.985-92.524,132.079-260.437,40.338-374.308          l-10.978-13.627l31.924-25.724l10.982,13.628c51.426,63.832,74.922,143.833,66.157,225.267          c-8.76,81.407-48.745,154.777-112.585,206.596L587.783,652.815z M581.64,623.029l8.191,10.093l2.717-2.207          c60.952-49.474,99.126-119.516,107.488-197.224c8.365-77.716-14.059-154.066-63.139-214.985l-2.197-2.726l-10.123,8.157          l2.195,2.725c96.567,119.86,77.538,296.59-42.416,393.961L581.64,623.029z M-40.468,585.203l-10.932-13.67          c-51.35-64.219-74.805-144.418-66.043-225.824c8.765-81.433,48.745-154.603,112.576-206.03l13.626-10.978l25.726,31.926          l-13.629,10.98c-113.872,91.741-131.921,259.66-40.235,374.319l10.926,13.664L-40.468,585.203z M6.642,148.386l-2.725,2.195          c-60.919,49.081-99.075,118.911-107.44,196.626c-8.364,77.707,14.031,154.268,63.058,215.582l2.187,2.734l10.152-8.121          l-2.186-2.734c-96.489-120.666-77.474-297.397,42.386-393.964l2.726-2.196L6.642,148.386z M523.682,578.929l-25.724-31.924          l13.628-10.98c35.511-28.61,58.655-70.848,63.501-115.882c4.848-45.036-8.778-91.232-37.387-126.742l-10.979-13.626          l31.925-25.727l10.98,13.629c35.382,43.915,52.23,101.086,46.228,156.853c-6.002,55.767-34.63,108.042-78.544,143.421          L523.682,578.929z M517.643,549.122l8.157,10.123l2.726-2.196c41.044-33.067,67.8-81.914,73.408-134.018          c5.608-52.103-10.141-105.526-43.21-146.571l-2.195-2.726l-10.123,8.158l2.195,2.725          c30.921,38.38,45.648,88.323,40.405,137.023c-5.241,48.698-30.256,94.363-68.637,125.286L517.643,549.122z M37.888,526.646          l-10.98-13.628c-35.38-43.914-52.229-101.083-46.227-156.851c6.003-55.768,34.631-108.043,78.544-143.422l13.625-10.977          l25.729,31.921l-13.63,10.982c-35.509,28.608-58.655,70.846-63.503,115.883c-4.847,45.037,8.781,91.232,37.39,126.74          l10.979,13.626L37.888,526.646z M70.734,221.451l-2.725,2.195C26.965,256.714,0.209,305.562-5.399,357.665          c-5.608,52.104,10.141,105.526,43.209,146.569l2.196,2.726l10.123-8.157l-2.196-2.725          C17.013,457.699,2.285,407.757,7.526,359.056c5.243-48.702,30.261-94.368,68.639-125.287l2.726-2.196L70.734,221.451z"/>
							</g>
						</g>
					</g>
				</g>
				<g id="g13" transform="rotate(-6.0233,751.57,-651.43)">
					<g id="path11">
						<path inkscape:connector-curvature="0" fill="#970000" d="M481.222,528.519L276.553,693.414L111.66,488.744        c-45.236-56.148-36.26-139.545,19.888-184.781c56.148-45.236,139.545-36.26,184.782,19.887        c56.146-45.236,139.544-36.261,184.78,19.888C546.347,399.885,537.37,483.282,481.222,528.519"/>
					</g>
				</g>
				<g id="g17" transform="translate(53.256,97.011)">
					<g id="path15">
						<path inkscape:connector-curvature="0" fill="#FFFFFF" d="M384.333,326.625c11.707,1.271,10.746,7.983,2.369,22.903        l-14.555,27.134l-0.988-1.551l-13.592-27.53c-7.418-15.768-8.658-19.773,2.708-21.775c1.467-1.805,1.693-7.616-0.111-9.083        c-8.265,0.028-16.444,0.874-24.709,0.902s-16.528,0.056-24.06-0.819c-1.467,1.805-1.692,7.615,0.113,9.083        c11.705,1.27,13.764,5.19,22.422,24.963l22.421,48.939l-29.985,61.797l-1.635,0.169l-49.724-113.081        c-6.599-15.851-6.204-20.026,10.975-21.803c1.466-1.805,1.692-7.615-0.113-9.082c-10.718,0.282-22.255,0.647-29.701,0.59        c-9.082,0.113-19.066-0.509-28.148-0.396c-1.467,1.805-1.692,7.616,0.112,9.083c14.159,1.016,16.303,5.755,24.058,24.794        l59.058,139.396c1.24,4.006,3.131,6.291,6.402,5.952c3.271-0.338,4.738-2.144,6.771-6.488l39.829-78.523l36.268,78.922        c1.241,4.006,3.132,6.29,6.403,5.952c3.271-0.338,4.738-2.144,6.77-6.488l64.26-138.093        c6.092-13.032,11.621-23.523,27.164-25.13c1.467-1.806,1.691-7.616-0.113-9.082c-9.082,0.112-17.346,0.14-23.891,0.817        c-6.627-0.143-16.527,0.054-26.515-0.566c-0.732,0.902-0.959,6.713,0.847,8.18c17.516,1.496,18.277,8.857,11.535,23.609        l-52.158,111.214l-1.636,0.169l-33.872-71.729l20.085-37.625c6.91-13.116,12.523-22.79,27.163-25.13        c0.648-1.72,0.874-7.531-1.016-9.815c-6.543,0.676-13.172,0.535-19.716,1.211c-5.81-0.226-14.159-1.016-21.604-1.073        C382.754,319.349,383.347,325.074,384.333,326.625"/>
					</g>
				</g>
			</g>
		</g>
	</g>
</g>
<g>
	<path fill="#666666" d="M50.575,762.728l12.952,54.893l2.467,15.419l2.467-14.803l11.102-55.509h20.971l11.719,54.893l3.084,15.419   l3.083-14.803l12.952-55.509h20.354l-27.138,96.216h-19.736l-11.719-56.126l-3.084-18.503l-3.084,18.503l-11.719,56.126H56.742   l-27.754-96.216H50.575z"/>
	<path fill="#666666" d="M180.713,858.944h-19.736v-96.216h19.736V858.944z"/>
	<path fill="#666666" d="M199.216,762.728h19.737v39.473l37.006-39.473h25.904l-39.474,39.473l41.324,56.743H257.81l-29.605-41.94   l-9.868,9.868v32.072H198.6v-96.216H199.216z"/>
	<path fill="#666666" d="M312.701,858.944h-19.736v-96.216h19.736V858.944z"/>
	<path fill="#666666" d="M366.361,762.728h20.354v78.946h48.107v17.27h-67.845v-96.216H366.361z"/>
	<path fill="#666666" d="M521.169,850.309c-7.401,7.401-17.886,11.102-31.455,11.102c-13.568,0-24.054-3.7-31.455-11.102   c-9.868-9.252-14.803-22.204-14.803-39.474c0-17.886,4.935-30.838,14.803-39.473c7.401-7.401,17.887-11.103,31.455-11.103   c13.569,0,24.054,3.701,31.455,11.103c9.868,8.635,14.803,22.203,14.803,39.473C535.356,828.105,530.421,841.057,521.169,850.309z    M508.217,835.507c4.935-6.168,6.785-14.186,6.785-25.287c0-10.485-2.468-19.12-6.785-25.288   c-4.934-6.167-11.102-8.635-19.119-8.635c-8.019,0-14.186,3.701-18.504,9.252c-4.316,5.551-7.4,14.186-7.4,25.287   s2.467,19.12,7.4,25.288c4.935,6.167,11.103,8.635,19.12,8.635C497.733,844.759,503.9,841.675,508.217,835.507z"/>
	<path fill="#666666" d="M606.283,762.728h20.971l-32.689,96.216h-19.119l-32.689-96.216h21.587l20.971,72.778L606.283,762.728z"/>
	<path fill="#666666" d="M708.667,779.998h-50.575v20.354h46.875v16.652h-46.875v24.671h53.042v17.27h-72.778v-96.216h70.312   V779.998z"/>
	<path fill="#666666" d="M740.74,829.339c0.616,4.317,1.851,7.401,3.7,9.869c3.084,3.7,9.252,6.167,17.27,6.167   c4.935,0,8.635-0.616,11.719-1.85c5.551-1.851,8.635-5.552,8.635-11.103c0-3.084-1.233-5.551-4.317-7.401   c-3.084-1.85-7.401-3.084-13.568-4.317l-10.485-2.467c-10.485-2.467-17.27-4.935-20.971-7.401   c-6.167-4.317-9.868-11.102-9.868-20.97c0-8.635,3.084-16.036,9.252-21.587s15.419-8.635,27.755-8.635   c10.484,0,19.119,2.467,26.521,8.018s11.103,12.952,11.103,23.438h-19.12c-0.617-5.551-3.084-9.868-8.019-12.335   c-3.084-1.851-7.4-2.468-11.719-2.468c-5.551,0-9.251,1.233-12.951,3.084c-3.084,1.851-4.935,4.935-4.935,8.635   c0,3.701,1.851,6.168,4.935,7.401c1.85,1.233,6.167,2.467,12.951,3.7l16.653,3.701c7.401,1.851,12.952,4.317,16.652,6.784   c5.551,4.317,8.635,11.102,8.635,19.736s-3.7,16.036-10.484,21.587c-6.785,5.551-16.653,8.635-28.988,8.635   c-12.952,0-22.82-3.084-29.605-8.635c-7.401-5.551-11.102-13.568-11.102-23.437h20.354V829.339z"/>
	<path fill="#666666" d="M75.245,896.567c3.084,4.317,4.317,9.251,4.317,14.802c0,6.168-1.233,10.485-4.317,14.187   c-1.85,1.85-4.317,3.7-7.4,5.551c4.934,1.85,8.635,4.317,11.102,8.635s3.7,8.635,3.7,14.186s-1.233,11.102-4.317,15.419   c-1.85,3.084-4.317,5.551-6.784,7.401c-3.084,2.467-6.784,3.7-11.102,4.935c-4.317,0.616-8.635,1.233-13.569,1.233H3.7v-96.216   h46.258C62.293,886.082,70.312,889.782,75.245,896.567z M23.437,902.734v20.971h23.438c4.317,0,7.401-0.617,9.868-2.467   c2.468-1.851,3.701-4.317,3.701-8.635s-1.851-7.401-4.935-8.635c-3.084-1.234-6.784-1.234-11.102-1.234H23.437z M23.437,939.741   v25.904h23.438c4.317,0,7.401-0.617,9.868-1.851c4.317-1.851,6.168-6.168,6.168-11.719c0-4.934-1.851-8.635-6.168-10.485   c-2.467-1.233-5.551-1.85-9.868-1.85H23.437L23.437,939.741z"/>
	<path fill="#666666" d="M160.977,888.549c3.7,1.233,6.784,3.701,9.251,6.785c1.851,2.467,3.701,4.934,4.935,8.018   s1.851,6.168,1.851,9.868c0,4.317-1.233,9.252-3.701,13.569c-2.467,4.317-6.167,7.4-11.102,9.251   c4.317,1.851,7.401,4.317,9.252,7.401c1.85,3.084,2.467,8.018,2.467,14.803v6.168c0,4.316,0,7.4,0.616,8.635   c0.617,2.467,1.851,4.316,3.701,5.551v2.467h-22.204c-0.616-1.851-1.233-3.7-1.233-4.935c-0.616-2.467-0.616-5.551-0.616-8.018   v-8.635c0-6.168-1.234-10.485-3.084-12.335c-1.851-1.851-5.551-3.084-11.719-3.084h-19.736v37.623H99.916v-96.217h45.642   C152.342,886.082,157.276,887.315,160.977,888.549z M119.036,902.734v25.904h21.587c4.317,0,7.401-0.616,9.868-1.85   c3.701-1.851,5.551-5.551,5.551-11.103c0-5.551-1.85-9.868-5.551-11.718c-1.851-1.234-4.934-1.851-9.251-1.851h-22.204V902.734z"/>
	<path fill="#666666" d="M268.294,973.663c-7.401,7.401-17.886,11.102-31.455,11.102c-13.568,0-24.054-3.7-31.455-11.102   c-9.868-9.251-14.803-22.203-14.803-39.473c0-17.887,4.935-30.839,14.803-39.474c7.401-7.401,17.887-11.102,31.455-11.102   c13.569,0,24.054,3.7,31.455,11.102c9.868,8.635,14.803,22.203,14.803,39.474C283.097,951.46,278.162,964.412,268.294,973.663z    M255.959,958.86c4.934-6.167,6.784-14.186,6.784-25.287c0-10.485-2.467-19.12-6.784-25.287c-4.935-6.168-11.102-8.635-19.12-8.635   c-8.018,0-14.186,3.083-19.12,8.635c-4.934,5.551-7.4,14.186-7.4,25.287s2.467,19.12,7.4,25.287   c4.935,6.168,11.103,8.635,19.12,8.635C244.858,967.495,251.025,965.028,255.959,958.86z"/>
	<path fill="#666666" d="M325.037,886.082h22.82l33.922,96.216h-21.587l-6.167-19.736h-35.156l-6.784,19.736h-20.971   L325.037,886.082z M323.803,945.908h24.671l-12.335-37.622L323.803,945.908z"/>
	<path fill="#666666" d="M449.008,887.932c6.784,2.467,12.335,6.167,16.652,12.335c3.084,4.935,5.551,9.868,6.784,15.419   c1.233,5.552,1.851,11.103,1.851,16.036c0,12.952-2.467,23.438-7.401,32.689c-6.784,11.718-17.886,17.886-32.072,17.886h-41.323   v-96.216h41.323C440.373,886.082,445.307,886.699,449.008,887.932z M412.618,902.734v62.911h18.503   c9.252,0,16.036-4.935,19.736-14.187c1.851-4.934,3.084-11.102,3.084-18.503c0-9.868-1.233-17.27-4.317-22.82   c-3.084-4.934-9.251-8.018-18.503-8.018h-18.503V902.734z"/>
	<path fill="#666666" d="M497.733,895.95c8.018-8.018,17.27-11.719,29.604-11.719c16.036,0,27.755,5.551,35.156,16.036   c4.317,6.168,6.167,11.719,6.784,17.887h-20.354c-1.233-4.317-3.084-8.019-4.934-10.485c-3.701-4.317-8.635-6.168-16.036-6.168   s-12.952,3.084-16.653,8.635c-4.317,6.168-6.168,14.186-6.168,25.288c0,10.484,2.468,19.119,6.785,24.054   c4.317,5.551,9.868,8.018,16.652,8.018c6.785,0,12.336-2.467,16.036-6.784c1.851-2.467,3.7-6.168,4.935-11.102h19.736   c-1.851,10.485-6.168,19.12-12.952,25.287c-6.784,6.168-16.036,9.868-27.138,9.868c-13.569,0-24.671-4.317-32.072-13.568   c-8.018-8.635-11.719-20.971-11.719-36.39C484.163,918.154,488.481,905.202,497.733,895.95z"/>
	<path fill="#666666" d="M611.218,886.082h22.82l33.922,96.216h-21.587l-6.167-19.736h-35.772l-6.785,19.736h-20.97L611.218,886.082   z M609.985,945.908h24.67l-12.335-37.622L609.985,945.908z"/>
	<path fill="#666666" d="M693.865,952.693c0.617,4.317,1.851,7.4,3.701,9.868c3.084,3.7,9.251,6.168,17.27,6.168   c4.934,0,8.635-0.617,11.719-1.851c5.551-1.851,8.635-5.551,8.635-11.102c0-3.084-1.233-5.552-4.317-7.401   c-3.084-1.851-7.401-3.084-13.569-4.317l-10.485-2.468c-10.484-2.467-17.27-4.934-20.97-7.4   c-6.168-4.317-9.868-11.103-9.868-20.971c0-8.635,3.084-16.036,9.251-21.587c6.168-5.551,15.42-8.635,27.755-8.635   c10.485,0,19.12,2.467,26.521,8.019c7.401,5.551,11.102,12.952,11.102,23.437h-19.12c-0.616-5.551-3.083-9.868-8.018-12.335   c-3.084-1.851-7.401-2.467-11.719-2.467c-5.551,0-9.251,1.233-12.952,3.083c-3.084,1.851-4.935,4.935-4.935,8.635   c0,3.701,1.851,6.168,4.935,7.401c1.851,1.233,6.168,2.468,12.952,3.701l16.652,3.7c7.401,1.851,12.952,4.317,16.653,6.784   c5.551,4.317,8.635,11.103,8.635,19.737s-3.701,16.035-10.485,21.587c-6.784,5.551-16.652,8.635-28.988,8.635   c-12.952,0-22.82-3.084-29.604-8.635c-7.401-5.552-11.102-13.569-11.102-23.438h20.353V952.693z"/>
	<path fill="#666666" d="M836.955,886.082v17.27h-28.988v78.946h-20.354v-78.946h-28.988v-17.27H836.955z"/>
</g>
</svg>